HIERARCHY
ROOT teapot2
{
	OFFSET 0.000000 0.000000 0.000000
	CHANNELS 6 Xposition Yposition Zposition Yrotation Xrotation Zrotation
	End Site
	{
		OFFSET 0.000000 0.000000 0.000000
	}
}
MOTION
Frames: 67
Frame Time: 0.008333334
2.428083 5.674680 3.503499 79.354710 -23.471500 -1.831024 
2.433664 5.662552 3.503918 79.630420 -24.648040 -1.971252 
2.439529 5.650270 3.504701 79.944690 -25.825130 -1.971222 
2.445858 5.637297 3.506034 80.261580 -27.087400 -1.999146 
2.451289 5.623970 3.506892 80.387370 -28.239900 -2.145966 
2.457643 5.610400 3.508201 80.815930 -29.445010 -2.303192 
2.463325 5.597010 3.508920 81.179610 -30.594600 -2.401154 
2.469396 5.583230 3.510653 81.508740 -31.768860 -2.520691 
2.475187 5.570263 3.512321 81.887420 -33.077510 -2.689056 
2.481310 5.557415 3.514215 82.269670 -34.288820 -2.880676 
2.487686 5.544410 3.515340 82.583500 -35.599460 -2.999542 
2.494444 5.532011 3.516248 82.976520 -36.935090 -3.101807 
2.500313 5.519626 3.517231 83.212970 -38.118870 -3.188965 
2.506475 5.507815 3.518334 83.588180 -39.372160 -3.357178 
2.512213 5.495427 3.519008 83.934570 -40.748410 -3.505859 
2.518317 5.483603 3.520335 84.489900 -41.921170 -3.760468 
2.523872 5.470994 3.520638 84.894790 -43.143250 -3.905853 
2.529078 5.457784 3.520766 85.263080 -44.260250 -3.904358 
2.534735 5.445209 3.521667 85.680370 -45.436980 -4.140869 
2.540127 5.433867 3.520451 86.233260 -46.530000 -4.368256 
2.544786 5.422029 3.520396 86.623830 -47.731720 -4.474762 
2.549386 5.410721 3.519327 87.132220 -48.810880 -4.602051 
2.554594 5.399767 3.519121 87.528950 -49.597170 -4.661316 
2.558027 5.390529 3.518162 88.082040 -50.651150 -4.886047 
2.561077 5.379718 3.517216 88.449810 -51.606570 -4.940308 
2.564471 5.369853 3.515478 88.829930 -52.439150 -4.887604 
2.566767 5.361499 3.514360 89.401050 -53.236820 -5.169952 
2.568496 5.353515 3.511835 89.851550 -53.868320 -5.285889 
2.569924 5.345880 3.510056 90.299770 -54.522550 -5.401306 
2.571536 5.339629 3.508253 90.776660 -55.012510 -5.446930 
2.571521 5.333546 3.505887 90.999890 -55.354710 -5.495270 
2.571149 5.327768 3.502941 91.121940 -55.648740 -5.362488 
2.570024 5.322918 3.499041 91.216990 -55.755430 -5.316437 
2.568555 5.318931 3.494705 91.370270 -55.711150 -5.305328 
2.566169 5.314806 3.490660 91.241520 -55.549350 -5.014099 
2.562313 5.311039 3.486844 91.063720 -55.143250 -4.815613 
2.557600 5.306699 3.482662 90.826120 -54.633610 -4.427277 
2.552679 5.303602 3.478669 90.684680 -54.024200 -4.166595 
2.546657 5.301382 3.474812 90.559390 -53.165440 -4.038330 
2.540062 5.299306 3.471040 90.408280 -52.261410 -3.882660 
2.532899 5.297725 3.467915 90.147480 -51.213200 -3.586060 
2.524833 5.296634 3.464449 89.883570 -50.335360 -3.407104 
2.515943 5.296309 3.461990 89.716480 -49.449950 -3.374542 
2.506556 5.295857 3.459827 89.327320 -48.195070 -3.180328 
2.497447 5.295535 3.458628 89.149570 -47.118070 -3.069641 
2.487991 5.296126 3.457617 88.903100 -46.041380 -3.124725 
2.478550 5.297030 3.458004 88.753640 -45.007570 -3.162445 
2.468319 5.298194 3.457276 88.473510 -43.886600 -3.169434 
2.458959 5.299574 3.458081 88.217820 -42.737240 -3.285583 
2.449573 5.300362 3.459391 87.980260 -41.739260 -3.375885 
2.439133 5.301684 3.460451 87.682900 -40.731290 -3.546051 
2.429960 5.303273 3.462445 87.469230 -39.549350 -3.823059 
2.420763 5.304386 3.465044 87.260960 -38.386630 -4.065979 
2.410755 5.306271 3.467923 86.998150 -37.170200 -4.298065 
2.400937 5.307707 3.470917 86.894200 -36.010860 -4.806335 
2.391528 5.308923 3.473963 86.643150 -34.741420 -5.131592 
2.382399 5.310417 3.476933 86.420300 -33.493290 -5.460510 
2.372845 5.311565 3.480558 86.136100 -32.253720 -5.859650 
2.363310 5.313734 3.483695 85.806820 -30.775270 -6.194092 
2.354261 5.315453 3.486952 85.491320 -29.479860 -6.522247 
2.344264 5.318946 3.489446 85.109730 -28.011110 -6.942780 
2.335135 5.322135 3.492792 84.715190 -26.526860 -7.331940 
2.324708 5.325500 3.496321 84.219020 -24.970700 -7.643188 
2.315871 5.330075 3.498415 83.901410 -23.483430 -8.004974 
2.306138 5.335064 3.500502 83.528660 -21.821440 -8.427551 
2.296082 5.341241 3.501989 83.094050 -20.145260 -8.793945 
2.286934 5.347922 3.503204 82.677840 -18.499660 -9.119385 
